<!-- icon666.com - MILLIONS vector ICONS FREE --><svg version="1.1" id="Capa_1" xmlns="http://www.w3.org/2000/svg" xmlns:xlink="http://www.w3.org/1999/xlink" x="0px" y="0px" viewBox="0 0 135.001 135.001" style="enable-background:new 0 0 135.001 135.001;" xml:space="preserve"><g><circle style="fill:#FF6F00;" cx="67.501" cy="67.501" r="67.501"></circle><g><g><path style="fill:#2EBCEE;" d="M94.378,98.257c0,2.707-2.009,4.924-4.465,4.924h-46.44c-2.456,0-4.464-2.217-4.464-4.924V50.739 c0-2.707,2.008-4.922,4.464-4.922h46.44c2.456,0,4.465,2.215,4.465,4.922V98.257z"></path><rect x="36.334" y="42.339" style="fill:#2EBCEE;" width="60.718" height="7.965"></rect><rect x="63.165" y="42.339" style="fill:#FEC820;" width="7.056" height="60.842"></rect><path style="opacity:0.35;fill:#BAC717;" d="M39.032,50.229c-0.017,0.168-0.023,0.338-0.023,0.51v0.639h55.369v-0.639 c0-0.172-0.008-0.342-0.024-0.51H39.032z"></path><rect x="39.009" y="70.018" style="fill:#FCCF4E;" width="55.369" height="6.598"></rect><g><path style="fill:#FEC820;" d="M57.55,35.733c0.602,2.68-0.697,2.33-2.686,3.924c-1.592,1.277-0.896,3.393,0.839,4.25 c2.428,1.201,7.463,0.117,9.634-1.047c2.455-1.314,3.607-3.314,2.647-5.726C66.347,33.024,55.947,28.591,57.55,35.733z"></path><path style="fill:#FEC820;" d="M76.767,35.733c-0.602,2.68,0.696,2.33,2.685,3.924c1.593,1.277,0.897,3.393-0.839,4.25 c-2.427,1.201-7.462,0.117-9.634-1.047c-2.454-1.314-3.605-3.314-2.646-5.726C67.969,33.024,78.367,28.591,76.767,35.733z"></path></g><circle style="fill:#FCAC39;" cx="66.857" cy="40.896" r="2.64"></circle></g><g><g><path style="fill:#15A4E7;" d="M66.793,45.817h-23.32c-2.456,0-4.464,2.215-4.464,4.922v47.517c0,2.707,2.008,4.924,4.464,4.924 h23.32V45.817z"></path></g><g><rect x="36.334" y="42.339" style="fill:#15A4E7;" width="30.459" height="7.965"></rect></g><g><rect x="63.165" y="42.339" style="fill:#FEB30D;" width="3.628" height="60.842"></rect></g><g style="opacity:0.35;"><path style="fill:#A1B208;" d="M66.793,50.229H39.032c-0.017,0.168-0.023,0.338-0.023,0.51v0.639h27.784V50.229z"></path></g><g><rect x="39.009" y="70.018" style="fill:#FBBC2E;" width="27.784" height="6.598"></rect></g><g><g><path style="fill:#FEB30D;" d="M66.793,35.38c-3.191-3.389-10.616-5.764-9.243,0.353c0.602,2.68-0.697,2.33-2.686,3.924 c-1.592,1.277-0.896,3.393,0.839,4.25c2.428,1.201,7.463,0.117,9.634-1.047c0.561-0.3,1.042-0.64,1.457-1.008V35.38z"></path></g><g><path style="fill:#FEB30D;" d="M66.793,36.281c-0.189,0.283-0.348,0.568-0.461,0.853c-0.595,1.496-0.375,2.833,0.461,3.946 V36.281z"></path></g></g><g><path style="fill:#FB901D;" d="M66.793,38.263c-1.428,0.035-2.575,1.197-2.575,2.633c0,1.438,1.147,2.6,2.575,2.635V38.263z"></path></g></g></g></g></svg>